<svg width="18" height="20" viewBox="0 0 18 20" fill="none" xmlns="http://www.w3.org/2000/svg">
<path fill-rule="evenodd" clip-rule="evenodd" d="M8.41511 0.395105C8.79624 0.277966 9.20375 0.277966 9.58488 0.395105L12.5706 1.31277C14.1283 1.79152 15.6075 2.49538 16.9616 3.40203C18.0147 4.10722 17.5155 5.74997 16.2481 5.74997H1.75191C0.484457 5.74997 -0.0147414 4.10722 1.03841 3.40204C2.39244 2.49538 3.87174 1.79152 5.42938 1.31277L8.41511 0.395105ZM9.1442 1.82891C9.05023 1.80003 8.94976 1.80003 8.85579 1.82891L5.87006 2.74658C4.68925 3.1095 3.55791 3.61454 2.50069 4.24997H15.4993C14.4421 3.61454 13.3107 3.1095 12.1299 2.74658L9.1442 1.82891Z" fill="#FFB961"/>
<path d="M1.25 19C1.25 18.5858 1.58579 18.25 2 18.25H16C16.4142 18.25 16.75 18.5858 16.75 19C16.75 19.4142 16.4142 19.75 16 19.75H2C1.58579 19.75 1.25 19.4142 1.25 19Z" fill="#FFB961"/>
<path d="M3.25 15C3.25 15.4142 3.58579 15.75 4 15.75C4.41421 15.75 4.75 15.4142 4.75 15L4.75 8.99997C4.75 8.58576 4.41421 8.24997 4 8.24997C3.58579 8.24997 3.25 8.58576 3.25 8.99997L3.25 15Z" fill="#FFB961"/>
<path d="M9 15.75C8.58579 15.75 8.25 15.4142 8.25 15L8.25 8.99997C8.25 8.58576 8.58579 8.24997 9 8.24997C9.41421 8.24997 9.75 8.58576 9.75 8.99997V15C9.75 15.4142 9.41421 15.75 9 15.75Z" fill="#FFB961"/>
<path d="M13.25 15C13.25 15.4142 13.5858 15.75 14 15.75C14.4142 15.75 14.75 15.4142 14.75 15V8.99997C14.75 8.58576 14.4142 8.24997 14 8.24997C13.5858 8.24997 13.25 8.58576 13.25 8.99997V15Z" fill="#FFB961"/>
</svg>
