<svg width="24" height="18" viewBox="0 0 24 18" fill="none" xmlns="http://www.w3.org/2000/svg">
<path fill-rule="evenodd" clip-rule="evenodd" d="M14.3592 17.6671C14.2827 17.6671 14.2039 17.6639 14.1251 17.6563C13.1204 17.5621 12.3327 16.8893 12.1158 15.9414L9.05265 2.51673L5.8982 9.43056C5.71668 9.82706 5.30453 10.0838 4.85015 10.0838H1.42512C0.793776 10.0838 0.283447 9.59848 0.283447 9.00048C0.283447 8.4014 0.793776 7.91715 1.42512 7.91715H4.10121L6.96224 1.64573C7.36754 0.76173 8.26033 0.247147 9.27528 0.343564C10.28 0.437814 11.0677 1.11056 11.2846 2.05848L14.3477 15.4831L17.5022 8.56931C17.6837 8.17281 18.0947 7.91715 18.5502 7.91715H21.9753C22.6066 7.91715 23.1169 8.4014 23.1169 9.00048C23.1169 9.59848 22.6066 10.0838 21.9753 10.0838H19.2992L16.4381 16.3541C16.0648 17.1699 15.2645 17.6671 14.3592 17.6671Z" fill="#2D2F7E"/>
</svg>
