<svg width="23" height="23" viewBox="0 0 23 23" fill="none" xmlns="http://www.w3.org/2000/svg">
<path d="M21.1152 20V12.174C21.1153 11.6296 21.0042 11.0908 20.7887 10.5908C20.5733 10.0907 20.258 9.63995 19.8622 9.26603L12.4892 2.29803C12.1179 1.94696 11.6263 1.75134 11.1152 1.75134C10.6042 1.75134 10.1126 1.94696 9.74123 2.29803L2.36823 9.26603C1.97246 9.63995 1.65719 10.0907 1.44173 10.5908C1.22628 11.0908 1.11518 11.6296 1.11523 12.174V20C1.11523 20.5305 1.32595 21.0392 1.70102 21.4142C2.07609 21.7893 2.5848 22 3.11523 22H19.1152C19.6457 22 20.1544 21.7893 20.5294 21.4142C20.9045 21.0392 21.1152 20.5305 21.1152 20Z" stroke="#191A3F" stroke-width="2" stroke-linecap="round" stroke-linejoin="round"/>
</svg>
